<svg xmlns="http://www.w3.org/2000/svg" version="1.1" viewBox="0.00 0.00 64.00 64.00">
<path fill="#ffffff" d="
  M 9.19 60.18
  L 12.85 56.53
  A 1.58 1.57 44.3 0 1 15.06 56.51
  L 18.59 59.93
  Q 19.02 60.35 19.45 59.92
  L 22.85 56.53
  A 1.58 1.57 44.3 0 1 25.06 56.51
  L 28.59 59.93
  Q 29.02 60.35 29.45 59.92
  L 32.85 56.53
  A 1.58 1.57 44.3 0 1 35.06 56.51
  L 38.59 59.93
  Q 39.02 60.35 39.45 59.93
  L 42.69 56.69
  A 1.85 1.85 0.0 0 1 45.31 56.69
  L 48.59 59.96
  Q 49.06 60.43 49.47 59.91
  L 52.19 56.48
  A 1.48 1.46 -26.6 0 0 52.50 55.58
  L 52.50 7.00
  A 3.50 3.50 0.0 0 0 49.00 3.50
  L 29.50 3.50
  A 3.49 3.48 0.3 0 0 26.01 6.94
  C 25.98 10.51 26.73 17.18 25.18 20.07
  C 22.72 24.68 16.71 23.50 12.38 23.51
  Q 9.13 23.52 7.75 22.77
  C -0.19 18.47 13.81 9.19 16.78 6.75
  A 1.00 0.99 36.0 0 1 17.80 6.59
  Q 19.06 7.10 18.94 8.14
  Q 18.87 8.80 18.06 9.48
  Q 13.58 13.27 9.14 17.19
  A 1.91 1.90 -19.6 0 0 8.51 18.51
  C 8.44 19.73 9.34 20.46 10.55 20.47
  Q 15.14 20.53 19.48 20.49
  A 3.54 3.54 0.0 0 0 22.99 16.97
  C 23.03 10.78 20.71 0.59 30.49 0.53
  Q 38.67 0.47 46.85 0.50
  C 51.45 0.51 55.50 1.89 55.50 7.00
  Q 55.51 31.75 55.50 56.51
  A 1.46 1.45 -25.8 0 1 55.18 57.42
  Q 53.20 59.98 51.04 62.29
  C 48.27 65.25 46.22 61.71 44.42 60.07
  A 0.64 0.64 0.0 0 0 43.52 60.09
  C 39.27 64.46 38.79 64.47 34.43 60.05
  Q 34.02 59.64 33.61 60.04
  L 30.75 62.82
  A 2.57 2.55 45.3 0 1 27.16 62.79
  L 24.44 60.06
  Q 24.00 59.63 23.56 60.06
  L 20.88 62.75
  A 2.66 2.66 0.0 0 1 17.12 62.75
  L 14.43 60.05
  Q 14.06 59.68 13.66 60.03
  C 12.42 61.10 11.24 62.80 9.77 63.23
  C 6.83 64.09 5.52 61.67 5.51 59.02
  Q 5.48 46.15 5.51 33.40
  A 1.07 1.07 0.0 0 1 6.20 32.40
  C 7.64 31.83 8.60 32.56 8.56 34.09
  Q 8.22 47.03 8.62 59.96
  Q 8.65 60.73 9.19 60.18
  Z"
/>
<path fill="#ffffff" d="
  M 39.85 41.00
  Q 38.85 41.51 37.70 41.19
  A 1.02 1.01 -59.6 0 0 36.71 41.45
  C 30.76 47.43 28.99 43.55 24.77 39.15
  A 0.52 0.52 0.0 0 0 23.98 39.19
  L 20.64 43.62
  Q 20.28 44.09 19.78 43.77
  L 18.42 42.91
  Q 17.71 42.46 18.23 41.80
  L 22.51 36.40
  A 0.96 0.96 0.0 0 1 23.15 36.06
  C 26.98 35.73 28.50 38.93 30.49 41.16
  A 1.57 1.56 -48.3 0 0 32.94 41.01
  Q 35.29 37.66 39.44 38.34
  A 1.42 1.42 0.0 0 1 39.85 41.00
  Z"
/>
<circle fill="#ffffff" cx="45.00" cy="43.00" r="1.49"/>
</svg>
