<svg xmlns="http://www.w3.org/2000/svg" version="1.1" viewBox="0.00 0.00 64.00 64.00">
<path fill="#fefefe" d="
  M 64.00 11.32
  L 64.00 35.76
  Q 50.57 33.26 40.82 35.33
  Q 24.72 38.76 19.65 55.55
  Q 19.53 55.96 19.96 55.96
  Q 38.48 56.06 57.00 56.05
  C 62.79 56.05 61.31 47.66 61.26 44.06
  A 1.31 1.31 0.0 0 1 63.66 43.32
  L 64.00 43.83
  L 64.00 54.52
  Q 62.06 59.22 57.75 59.23
  Q 32.84 59.31 7.93 59.16
  C 3.14 59.13 0.75 56.80 0.75 51.95
  Q 0.76 33.26 0.74 14.58
  C 0.73 9.15 2.74 6.54 8.17 6.53
  Q 32.27 6.47 56.37 6.51
  C 60.27 6.51 62.71 7.69 64.00 11.32
  Z
  M 4.51 10.68
  Q 3.77 12.06 3.75 13.32
  Q 3.44 33.09 3.49 52.46
  A 3.54 3.54 0.0 0 0 7.03 56.00
  L 15.52 56.00
  Q 16.21 56.00 16.42 55.34
  C 22.99 34.06 40.30 29.93 60.44 32.00
  Q 61.25 32.08 61.25 31.26
  L 61.25 13.03
  A 3.28 3.28 0.0 0 0 57.97 9.75
  L 6.04 9.75
  A 1.72 1.72 0.0 0 0 4.51 10.68
  Z"
/>
<path fill="#fefefe" d="
  M 26.71 24.31
  A 8.52 8.52 0.0 0 1 18.19 32.83
  A 8.52 8.52 0.0 0 1 9.67 24.31
  A 8.52 8.52 0.0 0 1 18.19 15.79
  A 8.52 8.52 0.0 0 1 26.71 24.31
  Z
  M 23.70 24.31
  A 5.50 5.50 0.0 0 0 18.20 18.81
  A 5.50 5.50 0.0 0 0 12.70 24.31
  A 5.50 5.50 0.0 0 0 18.20 29.81
  A 5.50 5.50 0.0 0 0 23.70 24.31
  Z"
/>
</svg>
