<svg xmlns="http://www.w3.org/2000/svg" version="1.1" viewBox="0.00 0.00 64.00 64.00">
<path fill="#fefefe" d="
  M 43.91 25.27
  A 11.55 11.55 0.0 0 1 32.36 36.82
  A 11.55 11.55 0.0 0 1 20.81 25.27
  A 11.55 11.55 0.0 0 1 32.36 13.72
  A 11.55 11.55 0.0 0 1 43.91 25.27
  Z
  M 40.91 25.28
  A 8.53 8.53 0.0 0 0 32.38 16.75
  A 8.53 8.53 0.0 0 0 23.85 25.28
  A 8.53 8.53 0.0 0 0 32.38 33.81
  A 8.53 8.53 0.0 0 0 40.91 25.28
  Z"
/>
<path fill="#fefefe" d="
  M 12.03 53.04
  C 21.12 37.95 44.05 36.30 52.58 53.14
  A 1.02 1.01 -18.6 0 1 51.86 54.59
  L 50.88 54.78
  Q 50.29 54.90 49.97 54.38
  C 41.51 40.45 23.32 40.61 14.68 54.51
  A 1.08 1.08 0.0 0 1 13.02 54.73
  L 12.15 53.89
  A 0.69 0.68 37.2 0 1 12.03 53.04
  Z"
/>
</svg>
