<svg xmlns="http://www.w3.org/2000/svg" version="1.1" viewBox="0.00 0.00 64.00 64.00">
<path fill="#fefdfe" d="
  M 5.53 14.82
  C 5.55 11.91 8.79 9.27 11.72 9.26
  Q 31.15 9.24 50.65 9.24
  C 56.50 9.24 59.04 10.94 59.14 16.94
  Q 59.37 30.65 59.21 44.19
  A 1.01 1.01 0.0 0 1 58.61 45.10
  C 57.03 45.81 56.02 44.92 56.02 43.30
  Q 55.97 29.32 56.01 15.62
  A 3.60 3.59 0.1 0 0 52.41 12.02
  L 12.24 12.02
  A 3.49 3.49 0.0 0 0 8.75 15.51
  L 8.75 43.99
  A 1.32 1.31 6.9 0 1 7.12 45.26
  L 6.18 45.03
  Q 5.52 44.87 5.52 44.19
  Q 5.46 29.50 5.53 14.82
  Z"
/>
<rect fill="#fefdfe" x="-1.54" y="-13.48" transform="translate(32.40,30.58) rotate(20.3)" width="3.08" height="26.96" rx="1.51"/>
<path fill="#fefdfe" d="
  M 19.84 31.44
  L 23.79 34.86
  A 2.14 2.13 23.2 0 1 24.52 36.67
  Q 24.40 37.90 23.52 38.01
  Q 22.96 38.08 22.27 37.47
  Q 19.02 34.62 15.75 31.66
  A 1.08 1.08 0.0 0 1 15.74 30.07
  L 22.29 24.00
  A 1.29 1.28 -52.1 0 1 23.78 23.81
  Q 25.51 24.75 23.86 26.36
  Q 21.73 28.45 19.78 30.72
  Q 19.45 31.11 19.84 31.44
  Z"
/>
<path fill="#fefdfe" d="
  M 48.59 29.77
  A 1.49 1.49 0.0 0 1 48.60 31.97
  L 42.34 37.71
  A 1.35 1.34 41.9 0 1 40.62 37.80
  Q 39.35 36.84 40.51 35.51
  Q 42.54 33.17 44.81 31.38
  A 0.62 0.62 0.0 0 0 44.84 30.43
  L 40.13 26.12
  A 1.46 1.46 0.0 0 1 42.09 23.95
  L 48.59 29.77
  Z"
/>
<path fill="#fefdfe" d="
  M 64.00 49.63
  L 64.00 54.53
  Q 62.09 59.28 56.74 59.29
  Q 32.95 59.35 9.11 59.16
  C 3.23 59.12 -0.58 56.45 0.88 50.06
  Q 0.99 49.58 1.48 49.59
  L 64.00 49.63
  Z
  M 60.07 52.50
  L 4.22 52.50
  Q 3.51 52.50 3.64 53.19
  Q 4.13 55.93 7.26 55.94
  Q 32.17 56.05 57.09 55.97
  C 58.87 55.96 60.85 55.25 60.87 53.30
  Q 60.87 52.50 60.07 52.50
  Z"
/>
</svg>
