<svg xmlns="http://www.w3.org/2000/svg" version="1.1" viewBox="0.00 0.00 64.00 64.00">
<path fill="#ffffff" d="
  M 15.50 29.00
  L 15.50 13.31
  A 1.36 1.35 -87.1 0 1 16.99 11.96
  Q 23.92 12.68 24.56 19.62
  A 0.94 0.92 -25.5 0 1 24.29 20.36
  Q 23.04 21.61 21.72 20.35
  A 0.87 0.84 -68.8 0 1 21.46 19.73
  Q 21.44 16.98 19.23 15.55
  Q 18.54 15.10 18.53 15.92
  Q 18.44 24.91 18.48 33.84
  C 18.54 49.75 -1.05 43.37 4.49 32.59
  Q 7.44 26.85 14.92 29.41
  Q 15.50 29.61 15.50 29.00
  Z
  M 15.40 36.00
  A 4.40 4.40 0.0 0 0 11.00 31.60
  A 4.40 4.40 0.0 0 0 6.60 36.00
  A 4.40 4.40 0.0 0 0 11.00 40.40
  A 4.40 4.40 0.0 0 0 15.40 36.00
  Z"
/>
<path fill="#ffffff" d="
  M 58.00 39.00
  L 58.00 31.00
  Q 58.00 30.32 57.34 30.45
  L 36.52 34.61
  Q 36.08 34.70 36.07 35.14
  Q 35.84 43.61 36.03 49.50
  C 36.47 63.77 16.83 58.83 21.65 48.13
  C 23.61 43.78 28.25 42.41 32.49 44.60
  A 0.35 0.35 0.0 0 0 33.00 44.29
  Q 33.01 37.06 33.00 29.72
  C 33.00 25.10 33.93 22.07 38.68 21.14
  Q 45.34 19.83 52.01 18.61
  C 60.50 17.07 61.06 22.53 61.02 29.30
  C 60.99 34.38 62.17 45.40 59.87 49.66
  C 55.47 57.83 42.91 51.58 46.69 43.23
  Q 49.65 36.68 57.45 39.39
  Q 58.00 39.58 58.00 39.00
  Z
  M 37.22 31.45
  L 57.73 27.24
  A 0.90 0.90 0.0 0 0 58.43 26.17
  L 58.18 24.93
  A 4.63 4.37 78.4 0 0 52.96 21.27
  L 39.25 24.09
  A 4.63 4.37 78.4 0 0 35.90 29.50
  L 36.15 30.75
  A 0.90 0.90 0.0 0 0 37.22 31.45
  Z
  M 57.87 46.00
  A 4.38 4.38 0.0 0 0 53.49 41.62
  A 4.38 4.38 0.0 0 0 49.11 46.00
  A 4.38 4.38 0.0 0 0 53.49 50.38
  A 4.38 4.38 0.0 0 0 57.87 46.00
  Z
  M 32.88 51.00
  A 4.37 4.37 0.0 0 0 28.51 46.63
  A 4.37 4.37 0.0 0 0 24.14 51.00
  A 4.37 4.37 0.0 0 0 28.51 55.37
  A 4.37 4.37 0.0 0 0 32.88 51.00
  Z"
/>
</svg>
