<svg xmlns="http://www.w3.org/2000/svg" version="1.1" viewBox="0.00 0.00 64.00 64.00">
<path fill="#fdfdfd" d="
  M 32.90 64.00
  L 30.95 64.00
  Q 30.64 46.25 30.72 28.46
  Q 30.75 21.58 32.20 18.24
  C 36.15 9.12 47.49 6.35 56.02 10.46
  A 1.74 1.73 -77.4 0 1 57.01 12.03
  L 56.98 52.43
  A 1.42 1.41 -78.9 0 1 55.03 53.74
  Q 39.71 47.49 33.80 62.90
  Q 33.55 63.56 33.54 63.56
  Q 33.36 63.78 32.90 64.00
  Z
  M 52.28 49.65
  Q 54.00 50.03 54.00 48.27
  L 54.00 13.73
  A 0.89 0.89 0.0 0 0 53.57 12.97
  C 47.47 9.25 38.80 12.75 35.62 18.51
  Q 34.04 21.36 33.87 26.90
  Q 33.52 38.45 33.94 49.99
  C 33.98 51.24 33.65 53.26 34.10 55.00
  Q 34.24 55.52 34.60 55.12
  Q 41.64 47.24 52.28 49.65
  Z"
/>
<path fill="#fdfdfd" d="
  M 25.46 64.00
  L 1.47 64.00
  L 1.04 63.74
  Q 0.67 63.51 0.67 63.08
  L 0.79 21.67
  Q 0.79 21.23 1.12 20.94
  Q 12.76 10.65 27.43 16.77
  Q 29.56 17.65 28.88 19.63
  A 1.04 1.04 0.0 0 1 27.40 20.22
  Q 15.82 14.09 5.07 21.60
  C 3.96 22.38 3.50 23.20 3.50 24.64
  Q 3.50 42.71 3.50 60.75
  A 0.50 0.50 0.0 0 0 4.00 61.25
  L 25.01 61.25
  A 0.91 0.89 -15.3 0 1 25.78 61.68
  Q 26.64 63.03 25.46 64.00
  Z"
/>
<path fill="#fdfdfd" d="
  M 64.00 21.31
  L 64.00 64.00
  L 38.71 64.00
  Q 38.18 62.58 38.73 61.81
  Q 39.14 61.24 40.44 61.24
  Q 50.62 61.27 60.56 61.24
  A 0.54 0.54 0.0 0 0 61.10 60.70
  L 61.31 21.80
  A 0.95 0.93 72.2 0 1 61.69 21.04
  Q 62.82 20.22 64.00 21.31
  Z"
/>
</svg>
