<svg
   preserveAspectRatio="none"
   viewBox="0 0 100 100"
   version="1.1"
   id="Sui_zodiacsign1"
   sodipodi:docname="Sui_zodiacsign1.svg"
   inkscape:version="1.1 (c68e22c387, 2021-05-23)"
   xmlns:inkscape="http://www.inkscape.org/namespaces/inkscape"
   xmlns:sodipodi="http://sodipodi.sourceforge.net/DTD/sodipodi-0.dtd"
   xmlns="http://www.w3.org/2000/svg"
   xmlns:svg="http://www.w3.org/2000/svg">
  <defs
     id="defs10" />
  <sodipodi:namedview
     id="namedview8"
     pagecolor="#505050"
     bordercolor="#eeeeee"
     borderopacity="1"
     inkscape:pageshadow="0"
     inkscape:pageopacity="0"
     inkscape:pagecheckerboard="0"
     showgrid="false"
     inkscape:zoom="8"
     inkscape:cx="40.375"
     inkscape:cy="10.3125"
     inkscape:window-width="1920"
     inkscape:window-height="1009"
     inkscape:window-x="2718"
     inkscape:window-y="12"
     inkscape:window-maximized="1"
     inkscape:current-layer="svg6" />
  <path
     style="fill:rgba(200,200,200,0.3);stroke-width:0.1"
     d="m 42.315162,98.833361 c -2.921909,-0.35007 -3.819333,-0.55561 -7.5,-1.71782 -2.00099,-0.63184 -3.461796,-1.14527 -3.657408,-1.2855 -0.05093,-0.0365 -0.675926,-0.32902 -1.388888,-0.65004 -4.174536,-1.87963 -6.812758,-3.52781 -8.639619,-5.39743 -0.665354,-0.68093 -0.811296,-0.89134 -1.080588,-1.55791 -0.407644,-1.00904 -0.478069,-1.72294 -0.282944,-2.868165 L 19.918002,84.462695 19.0101,83.597687 C 16.320077,81.034753 14.422203,78.78755 12.436555,75.814201 3.5537947,62.512966 2.3675437,45.620918 9.3003587,31.155168 11.40915,26.755044 14.227962,22.741654 17.678926,19.225866 c 3.507996,-3.57389 7.099497,-6.259079 11.387155,-8.513615 0.989809,-0.520462 1.111724,-0.608462 0.87963,-0.634931 -0.164117,-0.01872 -0.269439,-0.08502 -0.269439,-0.169617 0,-0.106382 0.166422,-0.152415 0.711059,-0.196684 0.981902,-0.07981 1.643027,-0.325991 1.699701,-0.632909 0.309596,-1.676636 0.751677,-2.56683 1.799813,-3.624181 1.094206,-1.103823 2.190337,-1.660031 3.725873,-1.890609 0.301685,-0.0453 0.355728,-0.09378 0.44067,-0.395292 C 38.106638,2.979016 38.17689,2.459787 38.20951,2.014185 38.25911,1.336541 38.29458,1.204 38.426273,1.204 c 0.131696,0 0.167157,0.132541 0.216762,0.810185 0.0842,1.15026 0.194892,1.490986 0.504983,1.554446 1.82856,0.374211 2.935326,0.978213 3.921391,2.140043 0.810557,0.955038 1.262694,1.916387 1.475181,3.136572 l 0.100551,0.577408 0.536792,0.113915 c 0.295236,0.06265 0.864741,0.14054 1.265566,0.173081 0.559775,0.04544 0.728774,0.09137 0.728774,0.198053 0,0.106682 -0.168999,0.15261 -0.728774,0.198054 -0.400825,0.03254 -0.974413,0.111294 -1.274639,0.175006 -0.473592,0.100503 -0.552359,0.147837 -0.594912,0.357502 -0.289189,1.424869 -0.702446,2.346517 -1.44829,3.229979 -1.007294,1.193153 -2.145983,1.821475 -3.969344,2.190261 -0.19969,0.04039 -0.256604,0.127113 -0.352177,0.536649 -0.0627,0.268661 -0.138789,0.832225 -0.169091,1.252364 -0.04588,0.636174 -0.08146,0.763889 -0.212773,0.763889 -0.131317,0 -0.166891,-0.127715 -0.212773,-0.763889 -0.0303,-0.420139 -0.106015,-0.982068 -0.168252,-1.248732 -0.10682,-0.457684 -0.131734,-0.487607 -0.44477,-0.534154 -0.182387,-0.02712 -0.614019,-0.12638 -0.959182,-0.220578 l -0.627568,-0.171268 -0.58449,0.659125 c -3.235587,3.64875 -5.434999,8.513877 -6.28381,13.899866 -0.27732,1.75969 -0.301047,6.312367 -0.04198,8.055556 0.639598,4.303723 2.122123,8.254004 4.352318,11.597025 0.803834,1.204932 0.996246,1.436331 1.053195,1.266591 0.0986,-0.293884 2.620883,-4.499873 3.426699,-5.714133 1.175923,-1.77196 2.388787,-3.076188 3.210559,-3.452407 0.632288,-0.289471 1.645893,-0.403948 3.608363,-0.40753 1.109238,-0.002 1.424649,-0.03207 1.633843,-0.155646 0.635714,-0.375525 1.670773,-2.511968 1.700045,-3.509025 0.01303,-0.443675 -0.03266,-0.539361 -0.888749,-1.861418 -1.8671,-2.883361 -1.985315,-3.405159 -1.400261,-6.180729 0.281471,-1.335334 0.743544,-2.774109 1.200471,-3.737953 1.106749,-2.334582 3.584265,-5.813523 6.4576,-9.067795 0.886766,-1.004333 1.079856,-1.274757 1.079856,-1.512354 0,-1.13607 3.135092,-6.873029 5.681575,-10.396813 1.497014,-2.071545 2.220284,-2.579618 3.452984,-2.425602 0.997675,0.124651 2.596026,0.588818 4.291366,1.246228 2.493493,0.966914 4.264436,1.9638 4.760643,2.679826 0.346306,0.49972 0.47354,1.445086 0.344228,2.557661 -0.05327,0.458333 -0.123493,1.104167 -0.156053,1.435185 -0.08242,0.837924 -0.537537,3.258263 -0.975018,5.185185 -0.641541,2.82572 -1.34749,5.086167 -1.791465,5.736263 -0.210319,0.307963 -0.227998,0.432993 -0.282127,1.995219 -0.134027,3.868235 -0.370639,6.217575 -0.881247,8.75 -0.515807,2.558207 -1.267065,4.408797 -2.626143,6.469038 -1.167226,1.769413 -1.632243,2.055309 -4.641718,2.853769 -0.866345,0.229855 -1.666017,0.465838 -1.777046,0.524407 -0.596247,0.314526 -1.418498,2.388309 -1.418498,3.577563 0,0.549713 0.134805,0.831769 0.552229,1.155441 0.129145,0.100138 0.747695,0.682659 1.374557,1.29449 0.937996,0.915506 1.197984,1.230252 1.468736,1.778081 0.323562,0.654683 0.329376,0.686777 0.352522,1.946251 0.02407,1.309564 -0.118814,2.589985 -0.499369,4.475034 -0.09767,0.483796 -0.163454,0.89378 -0.146189,0.911074 0.0788,0.07893 1.263897,-0.825701 1.819266,-1.388718 1.578522,-1.600253 2.503994,-3.67645 2.655598,-5.957541 0.04878,-0.733967 0.09033,-0.925926 0.200427,-0.925926 0.22938,0 0.15232,1.648339 -0.128588,2.750538 -0.653823,2.565414 -2.153452,4.510228 -4.667509,6.053127 -0.01517,0.0093 -0.211555,0.834439 -0.436413,1.833624 -0.840988,3.737024 -2.151052,8.675439 -3.196067,12.047896 -1.182282,3.815434 -4.265498,12.711693 -5.936693,17.129632 -0.536848,1.4192 -1.588091,3.80633 -2.320453,5.26922 l -0.737385,1.47292 2.206924,-0.0584 c 4.874329,-0.129 9.011813,-0.87126 13.553357,-2.43146 4.323796,-1.48539 8.612565,-3.75857 12.263691,-6.50012 3.23116,-2.426214 6.53064,-5.725697 8.95685,-8.956859 3.86505,-5.147359 6.62717,-11.23035 7.98194,-17.578564 0.57848,-2.710618 0.86547,-5.145154 0.96532,-8.188833 0.0503,-1.533189 0.082,-1.824205 0.19873,-1.824205 0.19293,0 0.22503,1.105823 0.0954,3.285404 -0.66207,11.129445 -5.31482,21.51088 -13.15418,29.350236 -7.359793,7.359801 -16.948587,11.912811 -27.404152,13.012221 -0.738426,0.0777 -2.363426,0.16801 -3.611111,0.2008 l -2.268519,0.0596 -0.37037,0.5938 c -0.540669,0.86684 -1.20723,1.440125 -2.129606,1.934372 -0.792161,0.31142 -0.973162,0.402775 -1.764477,0.500867 -0.743458,0.0147 -1.899898,-0.129502 -2.078139,-0.150599 z M 46.0919,98.147232 c 0.578819,-0.304786 0.99848,-0.651361 1.617857,-1.411791 0.633132,-0.77731 2.556668,-4.66006 3.588918,-7.2444 1.281751,-3.209 5.479741,-15.296561 6.447528,-18.564819 1.414085,-4.775422 2.822975,-10.381656 3.595101,-14.305556 0.510087,-2.592229 0.542492,-2.859604 0.549872,-4.537037 0.0058,-1.325458 -0.0054,-1.413601 -0.24677,-1.929983 -0.282259,-0.603959 -1.142759,-1.543348 -2.367347,-2.584381 -1.002045,-0.851848 -1.168799,-1.169579 -1.103428,-2.102469 0.04781,-0.682269 0.411176,-1.917899 0.765513,-2.60312 0.446967,-0.864351 0.700796,-1.033976 2.126017,-1.420734 2.226237,-0.604127 2.577532,-0.715007 3.098518,-0.978001 0.30298,-0.152943 0.694503,-0.404188 0.870051,-0.558321 0.725083,-0.636631 2.142816,-3.02676 2.788235,-4.700631 0.591284,-1.533471 1.15615,-4.336666 1.431483,-7.103841 0.09774,-0.982263 0.281247,-4.591877 0.283056,-5.567571 l 9.26e-4,-0.474978 -0.99537,0.04441 c -0.770959,0.03439 -1.256313,-0.0018 -2.152778,-0.160715 -0.636574,-0.112816 -1.365741,-0.237351 -1.62037,-0.276744 -0.651331,-0.100766 -3.020961,-0.918178 -4.419547,-1.524539 -1.892227,-0.82038 -4.178474,-2.297589 -5.129685,-3.314437 l -0.558989,-0.597562 -0.741536,0.843477 c -3.582192,4.074653 -6.014893,7.614063 -7.007435,10.19533 -0.366567,0.953318 -0.8308,2.788112 -0.99182,3.919985 -0.203434,1.430012 0.03923,2.264392 1.17583,4.042977 1.381189,2.161327 1.365046,2.128496 1.348146,2.7417 -0.03308,1.200395 -1.155001,3.353828 -1.960226,3.7625 -0.381502,0.193624 -0.527611,0.207726 -2.127005,0.205306 -1.80509,-0.0027 -2.446285,0.07235 -3.104577,0.363547 -0.456105,0.201758 -1.752839,1.454635 -2.203061,2.128554 -0.164238,0.245841 -0.552343,0.817717 -0.862457,1.270836 -1.321565,1.930992 -3.815944,6.327231 -6.59104,11.616439 -1.019762,1.943619 -3.207417,6.612409 -4.509555,9.624081 -0.165139,0.381945 -0.789977,1.819445 -1.388527,3.194445 -3.183536,7.313262 -4.301877,10.283569 -5.340218,14.183581 -0.408755,1.535282 -0.422378,2.658151 -0.044,3.626441 0.48534,1.242 1.629591,2.36352 4.094899,4.01354 2.013256,1.34747 6.435668,3.43772 9.388579,4.4375 4.743071,1.6059 7.527307,2.241645 10.428645,2.263787 v 0 c 0.913055,-0.03458 1.325628,-0.258745 1.866567,-0.516806 z M 53.910054,42.544571 C 51.428116,42.005549 49.5406,39.66653 49.5406,37.129926 c 0,-2.988291 2.564049,-5.55234 5.55234,-5.55234 2.559125,0 4.885067,1.893886 5.418644,4.412102 0.39454,1.862033 -0.150456,3.666635 -1.521352,5.03753 -1.372924,1.372924 -3.213665,1.922719 -5.080178,1.517353 z m 2.91585,-0.529824 c 3.564624,-1.250787 4.600465,-5.829608 1.930002,-8.531357 -2.431613,-2.4601 -6.620363,-1.842818 -8.225728,1.212198 -1.571783,2.991109 0.05661,6.652405 3.326183,7.478615 0.812193,0.205239 2.132202,0.134359 2.969543,-0.159456 z M 20.508885,82.500296 c 0.658091,-2.283342 1.283009,-4.013455 2.575227,-7.12963 3.809061,-9.185526 7.178431,-16.466001 10.057227,-21.731483 0.562424,-1.028705 1.0337,-1.906428 1.047279,-1.950496 0.01358,-0.04407 -0.292444,-0.535735 -0.680053,-1.092591 -2.501928,-3.594378 -4.016541,-7.459986 -4.71395,-12.030985 -0.2522,-1.652995 -0.347574,-4.983773 -0.191344,-6.682446 0.544149,-5.916486 2.688513,-11.1778 6.332752,-15.537751 l 0.694845,-0.831309 -0.384705,-0.224344 c -1.732106,-1.010095 -2.706076,-2.446804 -3.158964,-4.659812 -0.03957,-0.193352 -0.130283,-0.272423 -0.397759,-0.346706 -0.569649,-0.158201 -0.717188,-0.121702 -1.898851,0.469754 -6.081931,3.044173 -11.639083,7.722268 -15.765097,13.271295 -4.3899363,5.903974 -7.3118133,12.969253 -8.3685873,20.235763 -0.351671,2.418132 -0.424141,3.525588 -0.424141,6.481482 0,2.954068 0.07216,4.058104 0.423655,6.481481 1.188143,8.19172 4.6144453,15.828613 10.0323373,22.361111 0.856602,1.032828 4.279755,4.55899 4.348926,4.479795 0.01698,-0.01944 0.229024,-0.72285 0.471203,-1.563128 z m 48.86225,-60.837039 c 0.485156,-0.134744 0.642751,-0.385055 1.087869,-1.72788 1.065432,-3.214174 2.127506,-8.400812 2.285037,-11.158964 0.09834,-1.721917 -0.09106,-2.03257 -1.864064,-3.057361 C 69.841715,5.11894 69.291991,4.868533 67.407754,4.1374 66.100796,3.630267 65.961258,3.587999 64.618828,3.292608 62.557379,2.839004 62.290709,2.954694 60.789252,4.954 c -1.496979,1.993342 -3.516327,5.318208 -4.805301,7.911952 -0.803843,1.617536 -1.076198,2.30375 -1.076198,2.711544 0,0.777074 1.52155,2.076262 4.158224,3.550532 2.122492,1.186772 5.1337,2.18404 7.739925,2.563352 0.565764,0.08234 2.233319,0.06406 2.565232,-0.02812 z m -30.72332,-5.785328 c 0.756257,-2.640676 3.108008,-4.992426 5.748683,-5.748682 0.332117,-0.09511 0.603848,-0.194808 0.603848,-0.221544 0,-0.02673 -0.271731,-0.126429 -0.603848,-0.221543 C 41.755823,8.929904 39.404072,6.578154 38.647815,3.937477 38.552705,3.605361 38.453007,3.333629 38.426272,3.333629 c -0.02673,0 -0.12643,0.271732 -0.221544,0.603848 -0.756256,2.640677 -3.108006,4.992427 -5.748682,5.748683 -0.332117,0.09511 -0.603848,0.194808 -0.603848,0.221543 0,0.02674 0.271731,0.12643 0.603848,0.221544 2.640676,0.756256 4.992426,3.108006 5.748682,5.748682 0.09511,0.332117 0.194809,0.603848 0.221544,0.603848 0.02674,0 0.12643,-0.271731 0.221543,-0.603848 z m -0.920442,-0.345226 c -0.150427,-0.495631 -0.865834,-1.736151 -1.359499,-2.357376 -0.294491,-0.370584 -0.847057,-0.921422 -1.227925,-1.224085 -0.694884,-0.5522 -2.234689,-1.39539 -2.548209,-1.39539 -0.157824,0 -0.159929,0.03363 -0.03622,0.578703 0.477912,2.105775 2.194862,3.863666 4.316639,4.41957 0.891062,0.233457 0.932262,0.232426 0.855219,-0.02142 z m 3.291492,-0.454885 c 1.404021,-0.68524 2.562925,-2.079762 3.007435,-3.618879 0.08452,-0.292655 0.14034,-0.61898 0.124045,-0.725167 -0.02797,-0.182286 -0.07753,-0.169049 -0.887444,0.237054 -1.62442,0.814507 -2.886359,2.049744 -3.694083,3.615917 -0.209229,0.405695 -0.407828,0.828094 -0.44133,0.938664 -0.06086,0.200866 -0.06042,0.200924 0.521712,0.06878 0.320445,-0.07274 0.936794,-0.305107 1.369665,-0.516372 z M 33.887183,8.692179 c 1.725757,-0.930451 3.211781,-2.638892 3.837203,-4.411528 0.16467,-0.466727 0.178548,-0.463173 -0.815754,-0.208874 -2.340656,0.59864 -4.041865,2.48319 -4.450678,4.930335 l -0.05754,0.344409 0.395135,-0.139411 c 0.217323,-0.07668 0.708557,-0.308395 1.09163,-0.514931 z m 10.372422,0.489595 c 0,-0.04278 -0.08217,-0.39905 -0.182592,-0.791711 C 43.650379,6.72194 42.493061,5.269282 41.018865,4.551494 40.585994,4.34073 39.971412,4.109183 39.653124,4.036947 c -0.545071,-0.123705 -0.578703,-0.1216 -0.578703,0.03622 0,0.313521 0.84319,1.853325 1.39539,2.54821 0.695671,0.875429 1.697466,1.674033 2.779353,2.215627 0.861022,0.431029 1.010441,0.482012 1.010441,0.344767 z m 15.133903,73.032677 c -0.09828,-0.159026 0.01258,-0.211848 1.523568,-0.725907 11.093204,-3.774072 19.454123,-12.857817 22.312083,-24.241017 0.46562,-1.854558 0.81933,-4.137454 0.96507,-6.228712 0.0923,-1.3249 0.13814,-1.620371 0.25119,-1.620371 0.30711,0 0.0627,3.378685 -0.42872,5.925926 -1.10502,5.728096 -3.44562,10.825018 -7.0371,15.324074 -1.203246,1.507309 -3.673383,4.006283 -5.110858,5.170521 -3.374291,2.732903 -6.827675,4.64329 -10.907439,6.033919 -1.490698,0.508119 -1.4789,0.505399 -1.567794,0.361567 z m 7.96637,-16.013009 c -0.03234,-0.05233 0.479862,-0.62525 1.138237,-1.273148 1.306585,-1.285797 2.031964,-2.146092 2.875753,-3.410626 2.241946,-3.359861 3.42576,-7.006564 3.611273,-11.124416 0.05066,-1.124429 0.086,-1.365178 0.200391,-1.365178 0.192581,0 0.224259,0.788866 0.09471,2.358501 -0.357522,4.331737 -2.045225,8.541388 -4.772708,11.904603 -0.693184,0.854754 -2.840192,3.005414 -3.00031,3.005414 -0.0487,0 -0.115002,-0.04282 -0.147345,-0.09515 z"
     id="path931"
     sodipodi:nodetypes="csssssscsssssssssssssssssscssssssssssssssscssssssscsssssssssssssssssssssssssssssssssssscssssssscscscscccccssssccssssssssccscssscsssssscsssssssssscccssssssssssssssssssscssssssscsssssssssssssssscssssssssssscsssscssssssssssssssssccssscsssssssssscscssssssssssssss" />
</svg>
